{"title":"Animals.United.2010.BRRiP.x264.Feel-Free","uid":6339681,"size":1703089791,"categoryP":"video","categoryS":"movies","magnet":"?xt=urn:btih:67abc81908f1c46cc6983a1f47af16f8d4285449&amp;dn=Animals.United.2010.BRRiP.x264.Feel-Free&amp;tr=udp%3A%2F%2Ftracker.openbittorrent.com%3A80&amp;tr=udp%3A%2F%2Fopen.demonii.com%3A1337&amp;tr=udp%3A%2F%2Ftracker.coppersurfer.tk%3A6969&amp;tr=udp%3A%2F%2Fexodus.desync.com%3A6969","seeders":0,"leechers":1,"uploader":"qwersd","files":9,"time":1303603219,"description":"Genre:Animation | Family \nLanguage:English\nIMDb:http://www.imdb.com/title/tt1620449/\nSource:Real Full German Bluray/UK Retail\n\n\nFormat : MPEG-4\nFormat profile : Base Media\nCodec ID : isom\nFile size : 1.58 GiB\nDuration : 1h 33mn\nOverall bit rate : 2 433 Kbps\n\n\nVideo\nFormat profile : &lt;a class=&quot;__cf_email__&quot; href=&quot;/cdn-cgi/l/email-protection&quot; data-cfemail=&quot;eea6878986aea2dac0df&quot;&gt;[email&amp;#160;protected]&lt;/a&gt;&lt;script cf-hash='f9e31' type=&quot;text/javascript&quot;&gt;\n/* &lt;![CDATA[ */!function(){try{var t=&quot;currentScript&quot;in document?document.currentScript:function(){for(var t=document.getElementsByTagName(&quot;script&quot;),e=t.length;e--;)if(t[e].getAttribute(&quot;cf-hash&quot;))return t[e]}();if(t&amp;&amp;t.previousSibling){var e,r,n,i,c=t.previousSibling,a=c.getAttribute(&quot;data-cfemail&quot;);if(a){for(e=&quot;&quot;,r=parseInt(a.substr(0,2),16),n=2;a.length-n;n+=2)i=parseInt(a.substr(n,2),16)^r,e+=String.fromCharCode(i);e=document.createTextNode(e),c.parentNode.replaceChild(e,c)}}}catch(u){}}();/* ]]&gt; */&lt;/script&gt;\nFormat settings, CABAC : Yes\nFormat settings, ReFrames : 3 frames\nCodec ID : avc1\nCodec ID/Info : Advanced Video Coding\nDuration : 1h 33mn\nBit rate mode : Variable\nBit rate : 2 000 Kbps\nMaximum bit rate : 11.6 Mbps\nWidth : 720 pixels\nHeight : 304 pixels\nDisplay aspect ratio : 2.35:1\nFrame rate mode : Constant\nFrame rate : 23.976 fps\nColor space : YUV\nChroma subsampling : 4:2:0\nBit depth : 8 bits\nScan type : Progressive\nBits/(Pixel*Frame) : 0.381\nStream size : 1.29 GiB (82%)\nWriting library : x264\n\n\nAudio\nID : 2\nFormat : AAC\nFormat/Info : Advanced Audio Codec\nFormat version : Version 4\nFormat profile : LC\nFormat settings, SBR : No\nCodec ID : 40\nDuration : 1h 33mn\nBit rate mode : Variable\nBit rate : 445 Kbps\nMaximum bit rate : 538 Kbps\nChannel(s) : 6 channels\nChannel positions : Front: L C R, Side: L R, LFE\nSampling rate : 48.0 KHz\nStream size : 297 MiB (18%)\n\n\nPlot:\nA group of animals waiting for the annual flood they rely on for food and water discover that the humans...\n\nScreens:\n &lt;a href=&quot;\nhttp://leetleech.org/images/14247650198387886899.png&quot; rel=&quot;nofollow&quot; target=&quot;_NEW&quot;&gt;\nhttp://leetleech.org/images/14247650198387886899.png&lt;/a&gt; &lt;a href=&quot;\nhttp://leetleech.org/images/07043915557353153543.png&quot; rel=&quot;nofollow&quot; target=&quot;_NEW&quot;&gt;\nhttp://leetleech.org/images/07043915557353153543.png&lt;/a&gt; &lt;a href=&quot;\nhttp://leetleech.org/images/24326229249326516400.png&quot; rel=&quot;nofollow&quot; target=&quot;_NEW&quot;&gt;\nhttp://leetleech.org/images/24326229249326516400.png&lt;/a&gt; &lt;a href=&quot;\nhttp://leetleech.org/images/18598233078285569051.png&quot; rel=&quot;nofollow&quot; target=&quot;_NEW&quot;&gt;\nhttp://leetleech.org/images/18598233078285569051.png&lt;/a&gt; &lt;a href=&quot;\nhttp://leetleech.org/images/66958391110933350651.png&quot; rel=&quot;nofollow&quot; target=&quot;_NEW&quot;&gt;\nhttp://leetleech.org/images/66958391110933350651.png&lt;/a&gt;\n\nGreets:\n\nINK,CRYS,IMAGINE,LKRG,FXG,3Li,FLAWL3SS,TA,iLLUSiON,ViSiON,DTRG SAFCuk009,LU,TheFalcon007,MYSTiC,PrisM,Noir,WBZ,LAP,Rx,Kingdom,SAFCuk009+Fabreezy,HDLiTE,TWiZTED,ExtraTorrentRG.ELEKTRI4KA,MAGNAT,CM8\nAnd to all the other p2p grps past and present.","torrent":{"xt":"urn:btih:67abc81908f1c46cc6983a1f47af16f8d4285449","amp;dn":"Animals.United.2010.BRRiP.x264.Feel-Free","amp;tr":["udp%3A%2F%2Ftracker.openbittorrent.com%3A80","udp%3A%2F%2Fopen.demonii.com%3A1337","udp%3A%2F%2Ftracker.coppersurfer.tk%3A6969","udp%3A%2F%2Fexodus.desync.com%3A6969"],"infoHash":"67abc81908f1c46cc6983a1f47af16f8d4285449","infoHashBuffer":{"type":"Buffer","data":[103,171,200,25,8,241,196,108,198,152,58,31,71,175,22,248,212,40,84,73]},"announce":[],"urlList":[]}}